<svg width="18" height="22" viewBox="0 0 18 22" fill="none" xmlns="http://www.w3.org/2000/svg">
<path fill-rule="evenodd" clip-rule="evenodd" d="M4.49996 5C4.49996 2.51472 6.51468 0.5 8.99996 0.5C11.4852 0.5 13.5 2.51472 13.5 5C13.5 7.48528 11.4852 9.5 8.99996 9.5C6.51468 9.5 4.49996 7.48528 4.49996 5Z" fill="white"/>
<path fill-rule="evenodd" clip-rule="evenodd" d="M0.751211 19.1053C0.828551 14.6156 4.49195 11 8.99996 11C13.5081 11 17.1716 14.6157 17.2487 19.1056C17.2538 19.4034 17.0823 19.676 16.8116 19.8002C14.4327 20.8918 11.7865 21.5 9.00028 21.5C6.21382 21.5 3.5674 20.8917 1.18829 19.7999C0.917616 19.6757 0.746081 19.4031 0.751211 19.1053Z" fill="white"/>
</svg>
